<?xml version="1.0" standalone="no"?>
<!DOCTYPE svg PUBLIC "-//W3C//DTD SVG 20010904//EN"
 "http://www.w3.org/TR/2001/REC-SVG-20010904/DTD/svg10.dtd">
<svg version="1.0" xmlns="http://www.w3.org/2000/svg"
 width="256.000000pt" height="256.000000pt" viewBox="0 0 256.000000 256.000000"
 preserveAspectRatio="xMidYMid meet">
<metadata>
Created by potrace 1.16, written by Peter Selinger 2001-2019
</metadata>
<g transform="translate(0.000000,256.000000) scale(0.100000,-0.100000)"
fill="#000000" stroke="none">
<path d="M178 1446 l-32 -65 -55 -7 c-31 -3 -64 -11 -74 -16 -29 -15 -19 -50
29 -100 l47 -47 -10 -63 c-17 -104 2 -118 97 -69 l55 29 57 -29 c99 -50 119
-34 99 77 l-11 58 51 52 c39 40 50 56 45 72 -7 21 -21 26 -106 37 -43 6 -46 9
-75 68 -25 51 -35 63 -57 65 -25 3 -31 -3 -60 -62z"/>
<path d="M730 1495 c-7 -9 -23 -38 -36 -65 -22 -48 -23 -48 -81 -55 -32 -4
-66 -12 -75 -17 -31 -15 -21 -51 27 -98 l45 -44 -2 -81 c-3 -75 -2 -80 19 -83
12 -2 46 11 75 27 l55 31 54 -30 c60 -33 97 -38 106 -14 3 8 1 45 -5 81 l-11
66 49 47 c79 73 68 99 -47 115 -52 7 -53 7 -85 68 -35 65 -63 82 -88 52z"/>
<path d="M1253 1498 c-6 -7 -22 -36 -37 -65 -25 -51 -26 -52 -83 -59 -32 -3
-66 -11 -75 -16 -31 -16 -21 -51 30 -101 l48 -47 -9 -64 c-6 -35 -7 -71 -4
-80 10 -24 44 -19 103 15 l54 30 54 -30 c59 -34 93 -39 103 -15 3 9 2 45 -4
80 l-9 64 48 47 c51 50 61 85 31 101 -10 5 -44 13 -75 16 l-58 7 -32 62 c-34
63 -63 82 -85 55z"/>
<path d="M1773 1498 c-6 -7 -22 -36 -36 -65 -26 -50 -28 -51 -79 -58 -116 -16
-127 -42 -48 -115 l49 -47 -11 -66 c-6 -36 -8 -73 -5 -81 10 -24 45 -19 104
15 l55 30 55 -31 c30 -17 64 -30 76 -28 21 3 22 8 19 83 l-2 81 45 44 c48 47
58 83 28 98 -10 5 -44 13 -75 16 l-58 7 -32 62 c-34 63 -63 82 -85 55z"/>
<path d="M2292 1498 c-5 -7 -21 -36 -36 -65 -23 -47 -29 -52 -68 -58 -86 -13
-97 -17 -104 -37 -5 -16 6 -32 45 -72 l51 -52 -11 -58 c-20 -111 2 -128 101
-77 l55 29 57 -29 c32 -16 64 -29 72 -29 27 0 34 32 23 98 l-10 63 47 47 c48
50 58 85 29 100 -10 5 -43 13 -74 16 l-55 7 -32 64 c-26 53 -36 65 -56 65 -13
0 -28 -6 -34 -12z"/>
</g>
</svg>
