<?xml version="1.0" standalone="no"?>
<!DOCTYPE svg PUBLIC "-//W3C//DTD SVG 20010904//EN"
 "http://www.w3.org/TR/2001/REC-SVG-20010904/DTD/svg10.dtd">
<svg version="1.0" xmlns="http://www.w3.org/2000/svg"
 width="256.000000pt" height="256.000000pt" viewBox="0 0 256.000000 256.000000"
 preserveAspectRatio="xMidYMid meet">
<metadata>
Created by potrace 1.16, written by Peter Selinger 2001-2019
</metadata>
<g transform="translate(0.000000,256.000000) scale(0.100000,-0.100000)"
fill="#000000" stroke="none">
<path d="M178 1446 l-32 -65 -55 -7 c-31 -3 -64 -11 -74 -16 -29 -15 -19 -50
29 -100 l47 -47 -10 -63 c-17 -104 2 -118 97 -69 l55 29 57 -29 c99 -50 119
-34 99 77 l-11 59 50 48 c74 72 67 93 -37 109 l-70 10 -29 61 c-24 51 -34 63
-56 65 -25 3 -31 -3 -60 -62z"/>
<path d="M702 1447 l-31 -65 -53 -7 c-114 -16 -127 -43 -53 -115 l45 -44 -2
-81 c-3 -75 -2 -80 19 -83 12 -2 46 11 75 27 l55 31 54 -30 c60 -33 97 -38
106 -14 3 8 1 45 -5 81 l-11 66 50 47 c37 35 50 54 47 71 -3 24 -24 33 -100
44 -46 6 -48 8 -80 68 -26 49 -39 63 -59 65 -23 3 -29 -4 -57 -61z"/>
<path d="M1253 1498 c-6 -7 -22 -36 -37 -65 -24 -49 -28 -52 -73 -58 -79 -11
-98 -19 -101 -46 -2 -18 10 -37 46 -72 l48 -47 -9 -64 c-6 -35 -7 -71 -4 -80
10 -24 44 -19 103 15 l54 30 54 -30 c59 -34 93 -39 103 -15 3 9 2 45 -4 80
l-9 64 48 47 c36 35 48 54 46 72 -3 27 -22 35 -100 46 -46 6 -48 8 -80 68 -34
63 -63 82 -85 55z"/>
<path d="M1773 1498 c-6 -7 -22 -36 -37 -65 -24 -49 -28 -52 -73 -58 -77 -11
-98 -19 -101 -44 -3 -17 10 -36 47 -71 l50 -47 -11 -66 c-6 -36 -8 -73 -5 -81
10 -24 45 -19 104 15 l55 30 55 -31 c30 -17 64 -30 76 -28 21 3 22 8 19 83
l-2 81 45 44 c74 72 61 99 -52 115 -52 7 -53 7 -85 68 -34 63 -63 82 -85 55z"/>
<path d="M2292 1498 c-5 -7 -21 -37 -36 -65 -14 -29 -30 -53 -34 -53 -4 0 -34
-4 -66 -10 -92 -15 -98 -37 -26 -107 l50 -48 -11 -59 c-20 -111 2 -128 101
-77 l55 29 57 -29 c32 -16 64 -29 72 -29 27 0 34 32 23 98 l-10 63 47 47 c48
50 58 85 29 100 -10 5 -43 13 -74 16 l-55 7 -32 64 c-26 53 -36 65 -56 65 -13
0 -28 -6 -34 -12z m109 -192 l42 -7 -28 -29 c-24 -25 -27 -35 -22 -69 3 -23 3
-41 1 -41 -2 0 -19 8 -39 17 -33 16 -37 16 -71 0 l-36 -18 7 39 c5 33 2 44
-19 69 -22 26 -24 32 -10 37 9 3 24 6 35 6 12 0 28 14 41 36 l21 36 18 -34
c15 -29 25 -36 60 -42z"/>
</g>
</svg>
