<?xml version="1.0" standalone="no"?>
<!DOCTYPE svg PUBLIC "-//W3C//DTD SVG 20010904//EN"
 "http://www.w3.org/TR/2001/REC-SVG-20010904/DTD/svg10.dtd">
<svg version="1.0" xmlns="http://www.w3.org/2000/svg"
 width="256.000000pt" height="256.000000pt" viewBox="0 0 256.000000 256.000000"
 preserveAspectRatio="xMidYMid meet">
<metadata>
Created by potrace 1.16, written by Peter Selinger 2001-2019
</metadata>
<g transform="translate(0.000000,256.000000) scale(0.100000,-0.100000)"
fill="#000000" stroke="none">
<path d="M313 1425 c-24 -48 -31 -56 -63 -60 -114 -18 -124 -36 -55 -101 l46
-44 -11 -60 c-6 -33 -8 -65 -5 -70 10 -16 47 -11 95 14 l45 24 47 -24 c54 -27
86 -31 94 -9 3 8 2 39 -3 69 l-10 55 44 43 c67 65 56 89 -48 103 -43 5 -46 8
-72 60 -22 45 -31 55 -52 55 -21 0 -30 -10 -52 -55z m123 -119 l36 -7 -21 -23
c-14 -15 -21 -35 -21 -64 l0 -43 -32 17 c-29 15 -34 15 -66 0 l-35 -17 6 35
c5 29 1 42 -19 65 l-25 30 36 7 c29 5 40 14 53 41 l16 34 18 -34 c13 -27 26
-36 54 -41z"/>
<path d="M773 1425 c-25 -51 -29 -55 -72 -61 -105 -15 -115 -37 -48 -102 l44
-43 -10 -55 c-5 -30 -6 -61 -3 -69 8 -21 44 -18 96 9 l45 24 47 -24 c50 -25
83 -30 93 -14 3 5 1 35 -4 66 l-11 57 46 49 c66 70 57 85 -59 103 -34 5 -41
12 -64 61 -37 75 -63 75 -100 -1z m123 -119 l36 -7 -26 -28 c-24 -25 -26 -34
-20 -66 l7 -37 -33 17 c-31 16 -36 16 -67 1 -18 -9 -35 -16 -36 -16 -1 0 -1
18 1 41 3 31 -1 46 -18 64 l-22 24 37 7 c29 5 40 14 53 41 l16 34 18 -34 c13
-27 26 -36 54 -41z"/>
<path d="M1227 1426 c-23 -49 -30 -56 -64 -61 -91 -15 -93 -16 -93 -39 0 -12
17 -39 40 -61 l40 -39 -6 -73 -7 -73 27 0 c15 0 47 12 72 26 l44 26 44 -26
c25 -14 57 -26 72 -26 l27 0 -7 73 -6 73 40 39 c53 52 54 82 3 90 -95 16 -93
14 -121 71 -22 45 -31 54 -52 54 -21 0 -30 -9 -53 -54z m73 -85 c9 -23 20 -30
52 -35 l41 -7 -28 -29 c-23 -24 -26 -34 -21 -64 l7 -36 -36 17 c-33 16 -37 16
-64 0 -39 -23 -41 -22 -34 19 5 29 1 40 -21 63 l-28 29 40 7 c32 5 43 12 52
36 16 37 24 37 40 0z"/>
<path d="M1687 1426 c-23 -49 -30 -56 -64 -61 -117 -18 -126 -34 -57 -98 l47
-44 -11 -63 c-6 -34 -9 -67 -6 -71 9 -16 43 -10 94 16 l49 25 43 -25 c24 -14
56 -25 72 -25 l28 0 -6 73 -7 72 40 40 c65 62 52 86 -50 100 -43 5 -46 8 -72
60 -37 76 -63 76 -100 1z m73 -85 c9 -24 20 -31 53 -37 l41 -6 -28 -23 c-25
-20 -28 -28 -24 -64 2 -22 2 -41 0 -41 -2 0 -17 7 -34 16 -29 15 -34 15 -66 0
l-34 -17 6 37 c6 31 3 41 -20 65 l-26 28 37 7 c27 5 42 15 54 35 20 36 26 36
41 0z"/>
<path d="M2143 1425 c-25 -51 -29 -55 -72 -61 -105 -15 -114 -35 -47 -104 l45
-45 -10 -54 c-6 -29 -8 -59 -5 -67 8 -20 45 -16 96 10 l45 24 47 -24 c53 -27
86 -31 94 -10 3 8 1 38 -5 67 l-10 54 46 46 c66 69 57 86 -57 104 -32 4 -39
12 -63 60 -22 45 -31 55 -52 55 -21 0 -30 -10 -52 -55z m122 -119 l36 -7 -25
-30 c-20 -23 -24 -36 -19 -65 l6 -36 -33 17 c-31 16 -36 16 -67 1 l-33 -16 0
42 c0 29 -7 49 -21 64 l-21 23 37 7 c29 5 40 14 53 41 l16 34 18 -34 c13 -27
26 -36 53 -41z"/>
</g>
</svg>
