<svg xmlns="http://www.w3.org/2000/svg" xmlns:xlink="http://www.w3.org/1999/xlink" width="500" zoomAndPan="magnify" viewBox="0 0 375 374.999991" height="500" preserveAspectRatio="xMidYMid meet" version="1.0"><defs><g/><clipPath id="013e8a64eb"><path d="M 37 94.160156 L 224 94.160156 L 224 301.160156 L 37 301.160156 Z M 37 94.160156 " clip-rule="nonzero"/></clipPath><clipPath id="037fa716d8"><path d="M 1 123 L 276.75 123 L 276.75 275 L 1 275 Z M 1 123 " clip-rule="nonzero"/></clipPath></defs><g clip-path="url(#013e8a64eb)"><path fill="#f4ca44" d="M 223.703125 197.800781 C 223.703125 200.289062 223.609375 202.734375 223.421875 205.179688 C 223.328125 206.730469 223.1875 208.234375 223 209.785156 C 222.339844 215.515625 221.210938 221.109375 219.660156 226.515625 C 219.425781 227.265625 219.191406 228.019531 218.957031 228.816406 C 218.394531 230.601562 217.828125 232.34375 217.171875 234.035156 C 212.800781 245.78125 206.316406 256.546875 198.230469 265.804688 C 179.246094 287.609375 151.28125 301.378906 120.125 301.378906 C 94.605469 301.378906 71.199219 292.121094 53.152344 276.800781 C 53.953125 276.894531 54.75 276.941406 55.550781 277.035156 C 71.339844 287.984375 90.5625 294.425781 111.289062 294.425781 C 145.078125 294.425781 174.828125 277.363281 192.214844 251.46875 C 195.789062 246.160156 198.890625 240.472656 201.332031 234.457031 C 201.992188 232.859375 202.601562 231.261719 203.167969 229.617188 C 203.589844 228.441406 203.964844 227.21875 204.339844 226.042969 C 205.890625 220.921875 207.066406 215.609375 207.726562 210.113281 C 207.960938 208.140625 208.148438 206.164062 208.289062 204.144531 C 208.429688 202.171875 208.476562 200.148438 208.476562 198.128906 C 208.476562 196.765625 208.429688 195.402344 208.382812 194.039062 C 208.289062 191.972656 208.148438 189.953125 207.914062 187.929688 C 207.582031 184.78125 207.066406 181.679688 206.457031 178.625 C 205.984375 176.464844 205.46875 174.300781 204.90625 172.234375 C 202.882812 165.042969 200.0625 158.230469 196.492188 151.835938 C 194.425781 148.078125 192.074219 144.503906 189.535156 141.074219 C 171.820312 117.292969 143.386719 101.878906 111.242188 101.878906 C 81.632812 101.878906 55.128906 114.992188 37.316406 135.625 C 56.207031 110.527344 86.285156 94.265625 120.125 94.265625 C 160.398438 94.265625 195.269531 117.246094 212.425781 150.804688 C 213.457031 152.777344 214.398438 154.796875 215.292969 156.867188 C 217.734375 162.550781 219.707031 168.519531 221.117188 174.675781 C 221.496094 176.320312 221.824219 177.921875 222.105469 179.613281 C 222.667969 182.855469 223.09375 186.144531 223.375 189.480469 C 223.515625 191.03125 223.609375 192.628906 223.65625 194.226562 C 223.703125 195.402344 223.703125 196.578125 223.703125 197.800781 Z M 223.703125 197.800781 " fill-opacity="1" fill-rule="nonzero"/></g><g clip-path="url(#037fa716d8)"><path fill="#4b0082" d="M 176.050781 135.246094 C 180.324219 139.570312 184.132812 144.269531 187.46875 149.347656 L 154.710938 140.558594 L 154.101562 125.894531 Z M 221.355469 154.5625 C 221.402344 154.703125 221.449219 154.84375 221.542969 154.9375 C 222.105469 156.253906 222.621094 157.570312 223.140625 158.886719 L 245.886719 164.996094 Z M 155.324219 224.351562 C 155.324219 224.351562 164.488281 142.390625 114.953125 157.101562 C 114.953125 157.101562 132.203125 158.839844 135.726562 165.042969 C 154.664062 198.082031 143.058594 232.296875 143.058594 232.296875 L 159.554688 231.683594 L 196.117188 229.898438 C 196.632812 228.535156 197.152344 227.171875 197.574219 225.761719 Z M 226.335938 226.703125 C 226.195312 227.265625 226.007812 227.878906 225.867188 228.441406 L 247.0625 227.40625 Z M 76.417969 133.226562 C 92.300781 131.394531 128.394531 130.171875 128.394531 130.171875 C 128.394531 130.171875 118.007812 137.503906 111.898438 150.945312 C 125.949219 138.726562 146.160156 123.402344 146.160156 123.402344 C 146.160156 123.402344 88.070312 126.457031 72.140625 129.515625 C 56.253906 132.570312 40.324219 155.832031 40.324219 155.832031 C 49.488281 144.175781 58.371094 135.292969 76.417969 133.226562 Z M 19.550781 210.300781 L 87.460938 207.246094 L 89.90625 199.304688 L 97.234375 198.082031 C 97.234375 198.082031 102.125 194.414062 103.957031 189.527344 C 105.789062 184.640625 102.125 160.15625 102.125 160.15625 C 102.125 160.15625 39.148438 163.820312 32.378906 166.265625 C 25.660156 168.707031 14.050781 198.691406 14.050781 198.691406 C 20.160156 199.257812 19.550781 210.300781 19.550781 210.300781 Z M 82.574219 229.242188 L 81.351562 239.625 L 103.34375 239.625 L 103.34375 223.742188 C 103.34375 223.742188 128.441406 220.6875 130.273438 220.6875 C 128.628906 220.6875 103.34375 220.6875 103.34375 220.6875 Z M 21.996094 228.628906 L 11.609375 223.128906 L 12.828125 239.015625 L 25.050781 237.183594 Z M 130.273438 164.433594 C 122.941406 163.820312 111.335938 163.210938 111.335938 163.210938 C 111.335938 163.210938 107.058594 199.914062 107.667969 209.691406 C 107.808594 211.617188 116.222656 212.132812 118.667969 208.46875 C 121.109375 204.800781 122.332031 193.804688 124.164062 193.195312 C 125.996094 192.582031 135.160156 195.027344 135.160156 195.027344 C 135.160156 195.027344 137.605469 165.042969 130.273438 164.433594 Z M 1.832031 182.761719 C 0 190.09375 4.886719 201.089844 4.886719 201.089844 L 9.164062 199.867188 L 7.941406 183.984375 Z M 173.089844 167.628906 L 174.074219 176.652344 L 199.828125 178.203125 C 199.265625 175.804688 198.605469 173.457031 197.902344 171.152344 C 184.273438 169.085938 174.027344 167.628906 173.089844 167.628906 Z M 227.980469 175.710938 C 228.261719 177.121094 228.542969 178.53125 228.777344 179.988281 L 273.425781 182.714844 C 273.425781 182.667969 251.382812 179.234375 227.980469 175.710938 Z M 173.089844 184.6875 L 174.074219 193.710938 L 201.992188 193.992188 C 201.898438 191.738281 201.710938 189.527344 201.425781 187.320312 C 186.011719 185.816406 174.074219 184.6875 173.089844 184.6875 Z M 229.90625 190.09375 C 230 191.457031 230.046875 192.863281 230.09375 194.273438 L 276.386719 194.746094 C 276.433594 194.699219 253.921875 192.441406 229.90625 190.09375 Z M 173.089844 201.746094 L 174.074219 210.769531 L 201.238281 210.207031 C 201.519531 208.042969 201.757812 205.882812 201.898438 203.628906 C 186.339844 202.546875 174.121094 201.746094 173.089844 201.746094 Z M 229.90625 205.648438 C 229.8125 206.964844 229.71875 208.328125 229.53125 209.644531 L 273.378906 208.75 C 273.425781 208.75 252.605469 207.246094 229.90625 205.648438 Z M 168.152344 248.835938 L 165.097656 254.664062 L 159.269531 254.054688 L 155.886719 259.269531 C 155.886719 259.269531 144.890625 240.332031 143.058594 236.949219 C 142.539062 235.960938 147.050781 262.65625 147.050781 262.65625 L 158.988281 263.59375 L 162.65625 257.765625 L 168.152344 257.15625 C 168.152344 257.15625 167.542969 253.492188 168.484375 253.492188 C 169.421875 253.492188 173.371094 256.261719 175.203125 255.933594 C 176.050781 255.792969 178.679688 255.511719 181.3125 255.277344 C 182.160156 254.242188 183.003906 253.207031 183.851562 252.128906 C 179.011719 252.597656 168.152344 248.835938 168.152344 248.835938 Z M 72.140625 252.503906 L 75.804688 243.949219 L 29.9375 242.398438 L 30.21875 249.449219 Z M 224.738281 250.199219 C 224.738281 259.222656 220.273438 266.554688 214.773438 266.554688 L 206.171875 266.414062 C 209.324219 262.46875 212.1875 258.378906 214.726562 254.054688 C 215.242188 255.652344 215.949219 256.640625 216.746094 256.640625 C 218.25 256.640625 219.519531 253.160156 219.519531 248.835938 C 219.519531 247.664062 219.425781 246.582031 219.285156 245.59375 C 220.085938 243.949219 220.835938 242.304688 221.542969 240.660156 C 221.730469 240.191406 221.964844 239.671875 222.152344 239.203125 C 223.75 242.070312 224.738281 245.925781 224.738281 250.199219 Z M 134.503906 271.960938 C 134.550781 272.007812 134.550781 272.054688 134.550781 272.054688 C 134.550781 272.054688 125.667969 275.4375 114.390625 273.886719 C 107.855469 272.992188 106.445312 266.132812 106.351562 260.492188 L 105.179688 263.5 L 61.472656 260.773438 C 59.921875 263.359375 56.867188 267.636719 52.449219 270.175781 C 50.097656 271.539062 47.371094 272.429688 44.316406 272.335938 C 40.371094 272.242188 37.691406 270.644531 35.90625 268.53125 C 33.132812 265.285156 32.378906 260.867188 32.191406 258.941406 L 26.316406 258.566406 L 14.097656 250.625 C 14.097656 250.625 99.726562 259.175781 100.335938 257.34375 C 100.949219 255.511719 105.835938 248.789062 105.835938 248.789062 L 115.613281 249.402344 C 115.613281 249.402344 117.445312 232.296875 122.941406 229.242188 C 128.441406 226.183594 140.660156 224.964844 140.660156 224.964844 C 140.660156 224.964844 130.792969 229.523438 126.609375 235.960938 L 129.804688 235.445312 C 130.554688 235.207031 131.308594 235.066406 132.105469 235.066406 C 138.546875 235.066406 143.714844 243.433594 143.714844 253.726562 C 143.714844 262.703125 139.769531 270.175781 134.503906 271.960938 Z M 136.996094 254.335938 C 136.996094 250.011719 135.773438 246.535156 134.269531 246.535156 C 132.765625 246.535156 131.496094 250.011719 131.496094 254.335938 C 131.496094 258.660156 132.71875 262.136719 134.269531 262.136719 C 135.773438 262.136719 136.996094 258.613281 136.996094 254.335938 Z M 136.996094 254.335938 " fill-opacity="1" fill-rule="nonzero"/></g><g fill="#000000" fill-opacity="0.4"><g transform="translate(225.234814, 190.443128)"><g><path d="M 26.296875 -31.875 C 26.691406 -32.957031 27.3125 -33.738281 28.15625 -34.21875 C 29 -34.695312 29.890625 -34.925781 30.828125 -34.90625 C 31.765625 -34.882812 32.625 -34.65625 33.40625 -34.21875 C 34.1875 -33.78125 34.742188 -33.148438 35.078125 -32.328125 C 35.421875 -31.503906 35.394531 -30.550781 35 -29.46875 C 31.28125 -19.582031 27.117188 -9.976562 22.515625 -0.65625 C 21.992188 0.382812 21.222656 1.039062 20.203125 1.3125 C 19.179688 1.59375 18.160156 1.550781 17.140625 1.1875 C 16.117188 0.832031 15.328125 0.21875 14.765625 -0.65625 C 12.765625 -3.738281 11.113281 -7.039062 9.8125 -10.5625 C 8.507812 -14.082031 7.359375 -17.664062 6.359375 -21.3125 C 5.359375 -24.957031 4.316406 -28.5 3.234375 -31.9375 C 2.878906 -33.0625 2.890625 -34.03125 3.265625 -34.84375 C 3.648438 -35.664062 4.242188 -36.304688 5.046875 -36.765625 C 5.847656 -37.222656 6.707031 -37.460938 7.625 -37.484375 C 8.539062 -37.503906 9.398438 -37.265625 10.203125 -36.765625 C 11.003906 -36.265625 11.566406 -35.457031 11.890625 -34.34375 C 12.960938 -30.9375 13.988281 -27.410156 14.96875 -23.765625 C 15.957031 -20.128906 17.128906 -16.609375 18.484375 -13.203125 C 19.890625 -16.285156 21.242188 -19.378906 22.546875 -22.484375 C 23.847656 -25.585938 25.097656 -28.71875 26.296875 -31.875 Z M 26.296875 -31.875 "/></g></g></g><g fill="#000000" fill-opacity="0.4"><g transform="translate(263.535016, 190.443128)"><g><path d="M 25.03125 -12.671875 C 26.195312 -12.628906 27.128906 -12.285156 27.828125 -11.640625 C 28.523438 -11.003906 28.984375 -10.234375 29.203125 -9.328125 C 29.421875 -8.429688 29.421875 -7.539062 29.203125 -6.65625 C 28.984375 -5.78125 28.523438 -5.050781 27.828125 -4.46875 C 27.128906 -3.894531 26.195312 -3.625 25.03125 -3.65625 C 22.3125 -3.78125 19.585938 -3.769531 16.859375 -3.625 C 14.140625 -3.488281 11.421875 -3.203125 8.703125 -2.765625 C 7.859375 -2.640625 6.976562 -2.726562 6.0625 -3.03125 C 5.144531 -3.332031 4.375 -3.820312 3.75 -4.5 C 3.132812 -5.175781 2.90625 -6.054688 3.0625 -7.140625 C 3.738281 -12.660156 4.488281 -18.179688 5.3125 -23.703125 C 6.132812 -29.234375 7.023438 -34.757812 7.984375 -40.28125 C 8.109375 -40.957031 8.347656 -41.535156 8.703125 -42.015625 C 9.023438 -42.578125 9.484375 -43.046875 10.078125 -43.421875 C 10.679688 -43.804688 11.425781 -44.019531 12.3125 -44.0625 C 16.632812 -44.1875 20.953125 -44.109375 25.265625 -43.828125 C 26.429688 -43.742188 27.363281 -43.367188 28.0625 -42.703125 C 28.757812 -42.046875 29.21875 -41.265625 29.4375 -40.359375 C 29.664062 -39.460938 29.664062 -38.570312 29.4375 -37.6875 C 29.21875 -36.8125 28.757812 -36.09375 28.0625 -35.53125 C 27.363281 -34.976562 26.429688 -34.738281 25.265625 -34.8125 C 22.304688 -35.019531 19.285156 -35.125 16.203125 -35.125 C 16.003906 -33.957031 15.804688 -32.789062 15.609375 -31.625 C 15.410156 -30.46875 15.226562 -29.3125 15.0625 -28.15625 C 16.707031 -28.113281 18.289062 -28.015625 19.8125 -27.859375 C 21.007812 -27.734375 22.054688 -27.28125 22.953125 -26.5 C 23.859375 -25.71875 24.3125 -24.671875 24.3125 -23.359375 C 24.3125 -22.597656 24.097656 -21.851562 23.671875 -21.125 C 23.253906 -20.40625 22.707031 -19.828125 22.03125 -19.390625 C 21.351562 -18.953125 20.613281 -18.769531 19.8125 -18.84375 C 17.769531 -19.050781 15.726562 -19.15625 13.6875 -19.15625 C 13.53125 -18.03125 13.367188 -16.882812 13.203125 -15.71875 C 13.046875 -14.5625 12.890625 -13.425781 12.734375 -12.3125 C 14.765625 -12.507812 16.800781 -12.632812 18.84375 -12.6875 C 20.882812 -12.75 22.945312 -12.742188 25.03125 -12.671875 Z M 25.03125 -12.671875 "/></g></g></g><g fill="#000000" fill-opacity="0.4"><g transform="translate(296.132206, 190.443128)"><g><path d="M 34.15625 -5.640625 C 34.832031 -4.679688 35.109375 -3.769531 34.984375 -2.90625 C 34.867188 -2.050781 34.488281 -1.300781 33.84375 -0.65625 C 33.207031 -0.0195312 32.441406 0.425781 31.546875 0.6875 C 30.648438 0.945312 29.726562 0.945312 28.78125 0.6875 C 27.84375 0.425781 27.035156 -0.160156 26.359375 -1.078125 C 24.554688 -3.554688 22.539062 -5.835938 20.3125 -7.921875 C 18.09375 -10.003906 15.703125 -11.882812 13.140625 -13.5625 C 12.941406 -11.207031 12.753906 -8.835938 12.578125 -6.453125 C 12.398438 -4.066406 12.207031 -1.695312 12 0.65625 C 11.925781 1.820312 11.554688 2.742188 10.890625 3.421875 C 10.234375 4.097656 9.441406 4.554688 8.515625 4.796875 C 7.597656 5.035156 6.707031 5.046875 5.84375 4.828125 C 4.988281 4.609375 4.28125 4.148438 3.71875 3.453125 C 3.15625 2.753906 2.914062 1.820312 3 0.65625 C 3.363281 -3.707031 3.644531 -8.148438 3.84375 -12.671875 C 4.039062 -17.191406 4.582031 -21.613281 5.46875 -25.9375 C 5.90625 -28.175781 6.722656 -30.332031 7.921875 -32.40625 C 9.117188 -34.488281 10.648438 -36.210938 12.515625 -37.578125 C 14.378906 -38.941406 16.550781 -39.679688 19.03125 -39.796875 C 20.75 -39.878906 22.378906 -39.5625 23.921875 -38.84375 C 25.460938 -38.125 26.769531 -37.125 27.84375 -35.84375 C 28.925781 -34.5625 29.65625 -33.117188 30.03125 -31.515625 C 30.414062 -29.910156 30.332031 -28.25 29.78125 -26.53125 C 29.21875 -24.8125 28.304688 -23.191406 27.046875 -21.671875 C 25.785156 -20.148438 24.332031 -18.828125 22.6875 -17.703125 C 26.96875 -14.222656 30.789062 -10.203125 34.15625 -5.640625 Z M 18.0625 -25.640625 C 18.300781 -25.878906 18.703125 -26.25 19.265625 -26.75 C 19.828125 -27.25 20.328125 -27.773438 20.765625 -28.328125 C 21.210938 -28.890625 21.394531 -29.332031 21.3125 -29.65625 C 21.15625 -30.5 20.84375 -30.957031 20.375 -31.03125 C 19.914062 -31.113281 19.394531 -30.984375 18.8125 -30.640625 C 18.238281 -30.304688 17.671875 -29.847656 17.109375 -29.265625 C 16.546875 -28.679688 16.0625 -28.128906 15.65625 -27.609375 C 15.257812 -27.085938 15.003906 -26.707031 14.890625 -26.46875 C 14.566406 -25.550781 14.285156 -24.550781 14.046875 -23.46875 C 14.847656 -23.59375 15.566406 -23.84375 16.203125 -24.21875 C 16.847656 -24.601562 17.46875 -25.078125 18.0625 -25.640625 Z M 18.0625 -25.640625 "/></g></g></g><g fill="#000000" fill-opacity="0.4"><g transform="translate(334.13225, 190.443128)"><g><path d="M 24.25 -41.0625 C 24.375 -42.21875 24.785156 -43.085938 25.484375 -43.671875 C 26.179688 -44.253906 26.976562 -44.582031 27.875 -44.65625 C 28.78125 -44.738281 29.660156 -44.578125 30.515625 -44.171875 C 31.378906 -43.773438 32.0625 -43.175781 32.5625 -42.375 C 33.0625 -41.582031 33.234375 -40.625 33.078125 -39.5 C 32.753906 -36.894531 32.453125 -34.140625 32.171875 -31.234375 C 31.890625 -28.335938 31.476562 -25.425781 30.9375 -22.5 C 30.40625 -19.582031 29.628906 -16.800781 28.609375 -14.15625 C 27.585938 -11.519531 26.195312 -9.148438 24.4375 -7.046875 C 22.675781 -4.953125 20.414062 -3.265625 17.65625 -1.984375 C 16.613281 -1.503906 15.660156 -1.398438 14.796875 -1.671875 C 13.929688 -1.953125 13.238281 -2.460938 12.71875 -3.203125 C 12.207031 -3.953125 11.898438 -4.796875 11.796875 -5.734375 C 11.691406 -6.671875 11.847656 -7.566406 12.265625 -8.421875 C 12.691406 -9.285156 13.425781 -9.941406 14.46875 -10.390625 C 15.832031 -11.023438 16.941406 -11.882812 17.796875 -12.96875 C 18.660156 -14.050781 19.351562 -15.25 19.875 -16.5625 C 18.226562 -16.007812 16.554688 -15.738281 14.859375 -15.75 C 13.160156 -15.769531 11.488281 -16.203125 9.84375 -17.046875 C 7.6875 -18.128906 6.078125 -19.648438 5.015625 -21.609375 C 3.953125 -23.566406 3.320312 -25.71875 3.125 -28.0625 C 2.925781 -30.40625 3.035156 -32.742188 3.453125 -35.078125 C 3.867188 -37.421875 4.5 -39.535156 5.34375 -41.421875 C 5.78125 -42.503906 6.421875 -43.234375 7.265625 -43.609375 C 8.109375 -43.992188 8.976562 -44.101562 9.875 -43.9375 C 10.769531 -43.78125 11.578125 -43.398438 12.296875 -42.796875 C 13.023438 -42.203125 13.519531 -41.460938 13.78125 -40.578125 C 14.039062 -39.703125 13.945312 -38.722656 13.5 -37.640625 C 13.1875 -36.960938 12.867188 -36.039062 12.546875 -34.875 C 12.222656 -33.71875 11.988281 -32.5 11.84375 -31.21875 C 11.707031 -29.9375 11.757812 -28.753906 12 -27.671875 C 12.238281 -26.585938 12.800781 -25.769531 13.6875 -25.21875 C 14.488281 -24.65625 15.359375 -24.472656 16.296875 -24.671875 C 17.234375 -24.867188 18.132812 -25.296875 19 -25.953125 C 19.863281 -26.617188 20.632812 -27.367188 21.3125 -28.203125 C 21.988281 -29.046875 22.53125 -29.8125 22.9375 -30.5 C 23.175781 -32.257812 23.394531 -34.019531 23.59375 -35.78125 C 23.789062 -37.539062 24.007812 -39.300781 24.25 -41.0625 Z M 24.25 -41.0625 "/></g></g></g><g fill="#4b0082" fill-opacity="1"><g transform="translate(222.581689, 187.790003)"><g><path d="M 26.296875 -31.875 C 26.691406 -32.957031 27.3125 -33.738281 28.15625 -34.21875 C 29 -34.695312 29.890625 -34.925781 30.828125 -34.90625 C 31.765625 -34.882812 32.625 -34.65625 33.40625 -34.21875 C 34.1875 -33.78125 34.742188 -33.148438 35.078125 -32.328125 C 35.421875 -31.503906 35.394531 -30.550781 35 -29.46875 C 31.28125 -19.582031 27.117188 -9.976562 22.515625 -0.65625 C 21.992188 0.382812 21.222656 1.039062 20.203125 1.3125 C 19.179688 1.59375 18.160156 1.550781 17.140625 1.1875 C 16.117188 0.832031 15.328125 0.21875 14.765625 -0.65625 C 12.765625 -3.738281 11.113281 -7.039062 9.8125 -10.5625 C 8.507812 -14.082031 7.359375 -17.664062 6.359375 -21.3125 C 5.359375 -24.957031 4.316406 -28.5 3.234375 -31.9375 C 2.878906 -33.0625 2.890625 -34.03125 3.265625 -34.84375 C 3.648438 -35.664062 4.242188 -36.304688 5.046875 -36.765625 C 5.847656 -37.222656 6.707031 -37.460938 7.625 -37.484375 C 8.539062 -37.503906 9.398438 -37.265625 10.203125 -36.765625 C 11.003906 -36.265625 11.566406 -35.457031 11.890625 -34.34375 C 12.960938 -30.9375 13.988281 -27.410156 14.96875 -23.765625 C 15.957031 -20.128906 17.128906 -16.609375 18.484375 -13.203125 C 19.890625 -16.285156 21.242188 -19.378906 22.546875 -22.484375 C 23.847656 -25.585938 25.097656 -28.71875 26.296875 -31.875 Z M 26.296875 -31.875 "/></g></g></g><g fill="#4b0082" fill-opacity="1"><g transform="translate(260.88189, 187.790003)"><g><path d="M 25.03125 -12.671875 C 26.195312 -12.628906 27.128906 -12.285156 27.828125 -11.640625 C 28.523438 -11.003906 28.984375 -10.234375 29.203125 -9.328125 C 29.421875 -8.429688 29.421875 -7.539062 29.203125 -6.65625 C 28.984375 -5.78125 28.523438 -5.050781 27.828125 -4.46875 C 27.128906 -3.894531 26.195312 -3.625 25.03125 -3.65625 C 22.3125 -3.78125 19.585938 -3.769531 16.859375 -3.625 C 14.140625 -3.488281 11.421875 -3.203125 8.703125 -2.765625 C 7.859375 -2.640625 6.976562 -2.726562 6.0625 -3.03125 C 5.144531 -3.332031 4.375 -3.820312 3.75 -4.5 C 3.132812 -5.175781 2.90625 -6.054688 3.0625 -7.140625 C 3.738281 -12.660156 4.488281 -18.179688 5.3125 -23.703125 C 6.132812 -29.234375 7.023438 -34.757812 7.984375 -40.28125 C 8.109375 -40.957031 8.347656 -41.535156 8.703125 -42.015625 C 9.023438 -42.578125 9.484375 -43.046875 10.078125 -43.421875 C 10.679688 -43.804688 11.425781 -44.019531 12.3125 -44.0625 C 16.632812 -44.1875 20.953125 -44.109375 25.265625 -43.828125 C 26.429688 -43.742188 27.363281 -43.367188 28.0625 -42.703125 C 28.757812 -42.046875 29.21875 -41.265625 29.4375 -40.359375 C 29.664062 -39.460938 29.664062 -38.570312 29.4375 -37.6875 C 29.21875 -36.8125 28.757812 -36.09375 28.0625 -35.53125 C 27.363281 -34.976562 26.429688 -34.738281 25.265625 -34.8125 C 22.304688 -35.019531 19.285156 -35.125 16.203125 -35.125 C 16.003906 -33.957031 15.804688 -32.789062 15.609375 -31.625 C 15.410156 -30.46875 15.226562 -29.3125 15.0625 -28.15625 C 16.707031 -28.113281 18.289062 -28.015625 19.8125 -27.859375 C 21.007812 -27.734375 22.054688 -27.28125 22.953125 -26.5 C 23.859375 -25.71875 24.3125 -24.671875 24.3125 -23.359375 C 24.3125 -22.597656 24.097656 -21.851562 23.671875 -21.125 C 23.253906 -20.40625 22.707031 -19.828125 22.03125 -19.390625 C 21.351562 -18.953125 20.613281 -18.769531 19.8125 -18.84375 C 17.769531 -19.050781 15.726562 -19.15625 13.6875 -19.15625 C 13.53125 -18.03125 13.367188 -16.882812 13.203125 -15.71875 C 13.046875 -14.5625 12.890625 -13.425781 12.734375 -12.3125 C 14.765625 -12.507812 16.800781 -12.632812 18.84375 -12.6875 C 20.882812 -12.75 22.945312 -12.742188 25.03125 -12.671875 Z M 25.03125 -12.671875 "/></g></g></g><g fill="#4b0082" fill-opacity="1"><g transform="translate(293.47908, 187.790003)"><g><path d="M 34.15625 -5.640625 C 34.832031 -4.679688 35.109375 -3.769531 34.984375 -2.90625 C 34.867188 -2.050781 34.488281 -1.300781 33.84375 -0.65625 C 33.207031 -0.0195312 32.441406 0.425781 31.546875 0.6875 C 30.648438 0.945312 29.726562 0.945312 28.78125 0.6875 C 27.84375 0.425781 27.035156 -0.160156 26.359375 -1.078125 C 24.554688 -3.554688 22.539062 -5.835938 20.3125 -7.921875 C 18.09375 -10.003906 15.703125 -11.882812 13.140625 -13.5625 C 12.941406 -11.207031 12.753906 -8.835938 12.578125 -6.453125 C 12.398438 -4.066406 12.207031 -1.695312 12 0.65625 C 11.925781 1.820312 11.554688 2.742188 10.890625 3.421875 C 10.234375 4.097656 9.441406 4.554688 8.515625 4.796875 C 7.597656 5.035156 6.707031 5.046875 5.84375 4.828125 C 4.988281 4.609375 4.28125 4.148438 3.71875 3.453125 C 3.15625 2.753906 2.914062 1.820312 3 0.65625 C 3.363281 -3.707031 3.644531 -8.148438 3.84375 -12.671875 C 4.039062 -17.191406 4.582031 -21.613281 5.46875 -25.9375 C 5.90625 -28.175781 6.722656 -30.332031 7.921875 -32.40625 C 9.117188 -34.488281 10.648438 -36.210938 12.515625 -37.578125 C 14.378906 -38.941406 16.550781 -39.679688 19.03125 -39.796875 C 20.75 -39.878906 22.378906 -39.5625 23.921875 -38.84375 C 25.460938 -38.125 26.769531 -37.125 27.84375 -35.84375 C 28.925781 -34.5625 29.65625 -33.117188 30.03125 -31.515625 C 30.414062 -29.910156 30.332031 -28.25 29.78125 -26.53125 C 29.21875 -24.8125 28.304688 -23.191406 27.046875 -21.671875 C 25.785156 -20.148438 24.332031 -18.828125 22.6875 -17.703125 C 26.96875 -14.222656 30.789062 -10.203125 34.15625 -5.640625 Z M 18.0625 -25.640625 C 18.300781 -25.878906 18.703125 -26.25 19.265625 -26.75 C 19.828125 -27.25 20.328125 -27.773438 20.765625 -28.328125 C 21.210938 -28.890625 21.394531 -29.332031 21.3125 -29.65625 C 21.15625 -30.5 20.84375 -30.957031 20.375 -31.03125 C 19.914062 -31.113281 19.394531 -30.984375 18.8125 -30.640625 C 18.238281 -30.304688 17.671875 -29.847656 17.109375 -29.265625 C 16.546875 -28.679688 16.0625 -28.128906 15.65625 -27.609375 C 15.257812 -27.085938 15.003906 -26.707031 14.890625 -26.46875 C 14.566406 -25.550781 14.285156 -24.550781 14.046875 -23.46875 C 14.847656 -23.59375 15.566406 -23.84375 16.203125 -24.21875 C 16.847656 -24.601562 17.46875 -25.078125 18.0625 -25.640625 Z M 18.0625 -25.640625 "/></g></g></g><g fill="#4b0082" fill-opacity="1"><g transform="translate(331.479124, 187.790003)"><g><path d="M 24.25 -41.0625 C 24.375 -42.21875 24.785156 -43.085938 25.484375 -43.671875 C 26.179688 -44.253906 26.976562 -44.582031 27.875 -44.65625 C 28.78125 -44.738281 29.660156 -44.578125 30.515625 -44.171875 C 31.378906 -43.773438 32.0625 -43.175781 32.5625 -42.375 C 33.0625 -41.582031 33.234375 -40.625 33.078125 -39.5 C 32.753906 -36.894531 32.453125 -34.140625 32.171875 -31.234375 C 31.890625 -28.335938 31.476562 -25.425781 30.9375 -22.5 C 30.40625 -19.582031 29.628906 -16.800781 28.609375 -14.15625 C 27.585938 -11.519531 26.195312 -9.148438 24.4375 -7.046875 C 22.675781 -4.953125 20.414062 -3.265625 17.65625 -1.984375 C 16.613281 -1.503906 15.660156 -1.398438 14.796875 -1.671875 C 13.929688 -1.953125 13.238281 -2.460938 12.71875 -3.203125 C 12.207031 -3.953125 11.898438 -4.796875 11.796875 -5.734375 C 11.691406 -6.671875 11.847656 -7.566406 12.265625 -8.421875 C 12.691406 -9.285156 13.425781 -9.941406 14.46875 -10.390625 C 15.832031 -11.023438 16.941406 -11.882812 17.796875 -12.96875 C 18.660156 -14.050781 19.351562 -15.25 19.875 -16.5625 C 18.226562 -16.007812 16.554688 -15.738281 14.859375 -15.75 C 13.160156 -15.769531 11.488281 -16.203125 9.84375 -17.046875 C 7.6875 -18.128906 6.078125 -19.648438 5.015625 -21.609375 C 3.953125 -23.566406 3.320312 -25.71875 3.125 -28.0625 C 2.925781 -30.40625 3.035156 -32.742188 3.453125 -35.078125 C 3.867188 -37.421875 4.5 -39.535156 5.34375 -41.421875 C 5.78125 -42.503906 6.421875 -43.234375 7.265625 -43.609375 C 8.109375 -43.992188 8.976562 -44.101562 9.875 -43.9375 C 10.769531 -43.78125 11.578125 -43.398438 12.296875 -42.796875 C 13.023438 -42.203125 13.519531 -41.460938 13.78125 -40.578125 C 14.039062 -39.703125 13.945312 -38.722656 13.5 -37.640625 C 13.1875 -36.960938 12.867188 -36.039062 12.546875 -34.875 C 12.222656 -33.71875 11.988281 -32.5 11.84375 -31.21875 C 11.707031 -29.9375 11.757812 -28.753906 12 -27.671875 C 12.238281 -26.585938 12.800781 -25.769531 13.6875 -25.21875 C 14.488281 -24.65625 15.359375 -24.472656 16.296875 -24.671875 C 17.234375 -24.867188 18.132812 -25.296875 19 -25.953125 C 19.863281 -26.617188 20.632812 -27.367188 21.3125 -28.203125 C 21.988281 -29.046875 22.53125 -29.8125 22.9375 -30.5 C 23.175781 -32.257812 23.394531 -34.019531 23.59375 -35.78125 C 23.789062 -37.539062 24.007812 -39.300781 24.25 -41.0625 Z M 24.25 -41.0625 "/></g></g></g><g fill="#000000" fill-opacity="0.4"><g transform="translate(229.979861, 249.697822)"><g><path d="M 13.03125 -43.046875 C 15.382812 -42.597656 17.660156 -41.929688 19.859375 -41.046875 C 22.066406 -40.171875 24.113281 -38.894531 26 -37.21875 C 28.039062 -35.375 29.617188 -33.179688 30.734375 -30.640625 C 31.859375 -28.097656 32.257812 -25.445312 31.9375 -22.6875 C 31.65625 -20.332031 30.90625 -18.148438 29.6875 -16.140625 C 28.46875 -14.140625 26.976562 -12.378906 25.21875 -10.859375 C 23.25 -9.179688 20.929688 -7.832031 18.265625 -6.8125 C 15.609375 -5.789062 13.0625 -4.878906 10.625 -4.078125 C 9.945312 -3.878906 9.253906 -3.695312 8.546875 -3.53125 C 7.847656 -3.375 7.160156 -3.335938 6.484375 -3.421875 C 5.523438 -3.578125 4.691406 -4.035156 3.984375 -4.796875 C 3.285156 -5.554688 2.957031 -6.421875 3 -7.390625 C 3.28125 -18.273438 3.820312 -29.195312 4.625 -40.15625 C 4.707031 -41.394531 5.117188 -42.253906 5.859375 -42.734375 C 6.597656 -43.222656 7.476562 -43.484375 8.5 -43.515625 C 9.519531 -43.554688 10.507812 -43.5 11.46875 -43.34375 C 11.988281 -43.257812 12.507812 -43.160156 13.03125 -43.046875 Z M 22.625 -22.15625 C 23.1875 -23.789062 23.273438 -25.257812 22.890625 -26.5625 C 22.515625 -27.863281 21.828125 -29.003906 20.828125 -29.984375 C 19.828125 -30.960938 18.644531 -31.769531 17.28125 -32.40625 C 15.925781 -33.050781 14.546875 -33.515625 13.140625 -33.796875 C 12.742188 -27.191406 12.425781 -20.671875 12.1875 -14.234375 C 13.664062 -14.710938 15.09375 -15.257812 16.46875 -15.875 C 17.851562 -16.5 19.085938 -17.3125 20.171875 -18.3125 C 21.253906 -19.3125 22.070312 -20.59375 22.625 -22.15625 Z M 22.625 -22.15625 "/></g></g></g><g fill="#000000" fill-opacity="0.4"><g transform="translate(265.029996, 249.697822)"><g><path d="M 25.03125 -12.671875 C 26.195312 -12.628906 27.128906 -12.285156 27.828125 -11.640625 C 28.523438 -11.003906 28.984375 -10.234375 29.203125 -9.328125 C 29.421875 -8.429688 29.421875 -7.539062 29.203125 -6.65625 C 28.984375 -5.78125 28.523438 -5.050781 27.828125 -4.46875 C 27.128906 -3.894531 26.195312 -3.625 25.03125 -3.65625 C 22.3125 -3.78125 19.585938 -3.769531 16.859375 -3.625 C 14.140625 -3.488281 11.421875 -3.203125 8.703125 -2.765625 C 7.859375 -2.640625 6.976562 -2.726562 6.0625 -3.03125 C 5.144531 -3.332031 4.375 -3.820312 3.75 -4.5 C 3.132812 -5.175781 2.90625 -6.054688 3.0625 -7.140625 C 3.738281 -12.660156 4.488281 -18.179688 5.3125 -23.703125 C 6.132812 -29.234375 7.023438 -34.757812 7.984375 -40.28125 C 8.109375 -40.957031 8.347656 -41.535156 8.703125 -42.015625 C 9.023438 -42.578125 9.484375 -43.046875 10.078125 -43.421875 C 10.679688 -43.804688 11.425781 -44.019531 12.3125 -44.0625 C 16.632812 -44.1875 20.953125 -44.109375 25.265625 -43.828125 C 26.429688 -43.742188 27.363281 -43.367188 28.0625 -42.703125 C 28.757812 -42.046875 29.21875 -41.265625 29.4375 -40.359375 C 29.664062 -39.460938 29.664062 -38.570312 29.4375 -37.6875 C 29.21875 -36.8125 28.757812 -36.09375 28.0625 -35.53125 C 27.363281 -34.976562 26.429688 -34.738281 25.265625 -34.8125 C 22.304688 -35.019531 19.285156 -35.125 16.203125 -35.125 C 16.003906 -33.957031 15.804688 -32.789062 15.609375 -31.625 C 15.410156 -30.46875 15.226562 -29.3125 15.0625 -28.15625 C 16.707031 -28.113281 18.289062 -28.015625 19.8125 -27.859375 C 21.007812 -27.734375 22.054688 -27.28125 22.953125 -26.5 C 23.859375 -25.71875 24.3125 -24.671875 24.3125 -23.359375 C 24.3125 -22.597656 24.097656 -21.851562 23.671875 -21.125 C 23.253906 -20.40625 22.707031 -19.828125 22.03125 -19.390625 C 21.351562 -18.953125 20.613281 -18.769531 19.8125 -18.84375 C 17.769531 -19.050781 15.726562 -19.15625 13.6875 -19.15625 C 13.53125 -18.03125 13.367188 -16.882812 13.203125 -15.71875 C 13.046875 -14.5625 12.890625 -13.425781 12.734375 -12.3125 C 14.765625 -12.507812 16.800781 -12.632812 18.84375 -12.6875 C 20.882812 -12.75 22.945312 -12.742188 25.03125 -12.671875 Z M 25.03125 -12.671875 "/></g></g></g><g fill="#000000" fill-opacity="0.4"><g transform="translate(297.619415, 249.697822)"><g><path d="M 26.46875 -19.390625 C 27.632812 -19.472656 28.554688 -19.242188 29.234375 -18.703125 C 29.910156 -18.160156 30.367188 -17.445312 30.609375 -16.5625 C 30.847656 -15.6875 30.847656 -14.785156 30.609375 -13.859375 C 30.367188 -12.941406 29.898438 -12.148438 29.203125 -11.484375 C 28.503906 -10.828125 27.59375 -10.460938 26.46875 -10.390625 C 23.425781 -10.148438 20.4375 -9.757812 17.5 -9.21875 C 14.5625 -8.675781 11.628906 -7.984375 8.703125 -7.140625 C 7.859375 -6.898438 6.976562 -6.945312 6.0625 -7.28125 C 5.144531 -7.625 4.382812 -8.164062 3.78125 -8.90625 C 3.175781 -9.65625 2.914062 -10.53125 3 -11.53125 C 3.476562 -16.207031 3.945312 -20.882812 4.40625 -25.5625 C 4.875 -30.25 5.328125 -34.9375 5.765625 -39.625 C 5.878906 -40.738281 6.273438 -41.644531 6.953125 -42.34375 C 7.640625 -43.050781 8.441406 -43.515625 9.359375 -43.734375 C 10.285156 -43.953125 11.175781 -43.953125 12.03125 -43.734375 C 12.894531 -43.515625 13.597656 -43.050781 14.140625 -42.34375 C 14.679688 -41.644531 14.890625 -40.738281 14.765625 -39.625 C 14.410156 -35.894531 14.050781 -32.179688 13.6875 -28.484375 C 13.320312 -24.785156 12.960938 -21.09375 12.609375 -17.40625 C 17.128906 -18.363281 21.75 -19.023438 26.46875 -19.390625 Z M 26.46875 -19.390625 "/></g></g></g><g fill="#000000" fill-opacity="0.4"><g transform="translate(331.409181, 249.697822)"><g><path d="M 5.703125 -36.984375 C 5.828125 -38.097656 6.226562 -38.992188 6.90625 -39.671875 C 7.582031 -40.359375 8.378906 -40.820312 9.296875 -41.0625 C 10.222656 -41.300781 11.125 -41.3125 12 -41.09375 C 12.882812 -40.875 13.585938 -40.410156 14.109375 -39.703125 C 14.628906 -39.003906 14.828125 -38.097656 14.703125 -36.984375 C 13.546875 -26.128906 12.644531 -15.257812 12 -4.375 C 11.925781 -3.21875 11.566406 -2.289062 10.921875 -1.59375 C 10.285156 -0.894531 9.515625 -0.429688 8.609375 -0.203125 C 7.710938 0.015625 6.820312 0.015625 5.9375 -0.203125 C 5.0625 -0.429688 4.332031 -0.894531 3.75 -1.59375 C 3.164062 -2.289062 2.914062 -3.21875 3 -4.375 C 3.644531 -15.257812 4.546875 -26.128906 5.703125 -36.984375 Z M 5.703125 -36.984375 "/></g></g></g><g fill="#000000" fill-opacity="0.4"><g transform="translate(349.174311, 249.697822)"><g><path d="M 12.671875 -54.390625 C 13.628906 -42.898438 13.566406 -31.414062 12.484375 -19.9375 C 12.398438 -18.769531 12.019531 -17.835938 11.34375 -17.140625 C 10.664062 -16.441406 9.875 -15.976562 8.96875 -15.75 C 8.070312 -15.53125 7.179688 -15.53125 6.296875 -15.75 C 5.421875 -15.976562 4.710938 -16.441406 4.171875 -17.140625 C 3.628906 -17.835938 3.398438 -18.769531 3.484375 -19.9375 C 4.566406 -31.414062 4.625 -42.898438 3.65625 -54.390625 C 3.539062 -55.546875 3.757812 -56.472656 4.3125 -57.171875 C 4.875 -57.878906 5.585938 -58.34375 6.453125 -58.5625 C 7.316406 -58.78125 8.207031 -58.769531 9.125 -58.53125 C 10.039062 -58.289062 10.828125 -57.828125 11.484375 -57.140625 C 12.148438 -56.460938 12.546875 -55.546875 12.671875 -54.390625 Z M 7.859375 -9.359375 C 8.460938 -9.398438 9.035156 -9.289062 9.578125 -9.03125 C 10.117188 -8.769531 10.609375 -8.441406 11.046875 -8.046875 C 11.484375 -7.679688 11.8125 -7.195312 12.03125 -6.59375 C 12.25 -6 12.359375 -5.421875 12.359375 -4.859375 C 12.359375 -3.617188 11.921875 -2.5625 11.046875 -1.6875 C 11.003906 -1.644531 10.953125 -1.59375 10.890625 -1.53125 C 10.835938 -1.46875 10.769531 -1.398438 10.6875 -1.328125 C 9.84375 -0.484375 8.78125 -0.0390625 7.5 0 C 6.90625 0.0390625 6.335938 -0.0664062 5.796875 -0.328125 C 5.253906 -0.585938 4.765625 -0.921875 4.328125 -1.328125 C 3.921875 -1.722656 3.597656 -2.207031 3.359375 -2.78125 C 3.117188 -3.363281 3 -3.9375 3 -4.5 C 3 -5.738281 3.441406 -6.800781 4.328125 -7.6875 L 4.6875 -8.046875 C 5.519531 -8.890625 6.578125 -9.328125 7.859375 -9.359375 Z M 7.859375 -9.359375 "/></g></g></g><g fill="#f4ca44" fill-opacity="1"><g transform="translate(227.326736, 247.044697)"><g><path d="M 13.03125 -43.046875 C 15.382812 -42.597656 17.660156 -41.929688 19.859375 -41.046875 C 22.066406 -40.171875 24.113281 -38.894531 26 -37.21875 C 28.039062 -35.375 29.617188 -33.179688 30.734375 -30.640625 C 31.859375 -28.097656 32.257812 -25.445312 31.9375 -22.6875 C 31.65625 -20.332031 30.90625 -18.148438 29.6875 -16.140625 C 28.46875 -14.140625 26.976562 -12.378906 25.21875 -10.859375 C 23.25 -9.179688 20.929688 -7.832031 18.265625 -6.8125 C 15.609375 -5.789062 13.0625 -4.878906 10.625 -4.078125 C 9.945312 -3.878906 9.253906 -3.695312 8.546875 -3.53125 C 7.847656 -3.375 7.160156 -3.335938 6.484375 -3.421875 C 5.523438 -3.578125 4.691406 -4.035156 3.984375 -4.796875 C 3.285156 -5.554688 2.957031 -6.421875 3 -7.390625 C 3.28125 -18.273438 3.820312 -29.195312 4.625 -40.15625 C 4.707031 -41.394531 5.117188 -42.253906 5.859375 -42.734375 C 6.597656 -43.222656 7.476562 -43.484375 8.5 -43.515625 C 9.519531 -43.554688 10.507812 -43.5 11.46875 -43.34375 C 11.988281 -43.257812 12.507812 -43.160156 13.03125 -43.046875 Z M 22.625 -22.15625 C 23.1875 -23.789062 23.273438 -25.257812 22.890625 -26.5625 C 22.515625 -27.863281 21.828125 -29.003906 20.828125 -29.984375 C 19.828125 -30.960938 18.644531 -31.769531 17.28125 -32.40625 C 15.925781 -33.050781 14.546875 -33.515625 13.140625 -33.796875 C 12.742188 -27.191406 12.425781 -20.671875 12.1875 -14.234375 C 13.664062 -14.710938 15.09375 -15.257812 16.46875 -15.875 C 17.851562 -16.5 19.085938 -17.3125 20.171875 -18.3125 C 21.253906 -19.3125 22.070312 -20.59375 22.625 -22.15625 Z M 22.625 -22.15625 "/></g></g></g><g fill="#f4ca44" fill-opacity="1"><g transform="translate(262.37687, 247.044697)"><g><path d="M 25.03125 -12.671875 C 26.195312 -12.628906 27.128906 -12.285156 27.828125 -11.640625 C 28.523438 -11.003906 28.984375 -10.234375 29.203125 -9.328125 C 29.421875 -8.429688 29.421875 -7.539062 29.203125 -6.65625 C 28.984375 -5.78125 28.523438 -5.050781 27.828125 -4.46875 C 27.128906 -3.894531 26.195312 -3.625 25.03125 -3.65625 C 22.3125 -3.78125 19.585938 -3.769531 16.859375 -3.625 C 14.140625 -3.488281 11.421875 -3.203125 8.703125 -2.765625 C 7.859375 -2.640625 6.976562 -2.726562 6.0625 -3.03125 C 5.144531 -3.332031 4.375 -3.820312 3.75 -4.5 C 3.132812 -5.175781 2.90625 -6.054688 3.0625 -7.140625 C 3.738281 -12.660156 4.488281 -18.179688 5.3125 -23.703125 C 6.132812 -29.234375 7.023438 -34.757812 7.984375 -40.28125 C 8.109375 -40.957031 8.347656 -41.535156 8.703125 -42.015625 C 9.023438 -42.578125 9.484375 -43.046875 10.078125 -43.421875 C 10.679688 -43.804688 11.425781 -44.019531 12.3125 -44.0625 C 16.632812 -44.1875 20.953125 -44.109375 25.265625 -43.828125 C 26.429688 -43.742188 27.363281 -43.367188 28.0625 -42.703125 C 28.757812 -42.046875 29.21875 -41.265625 29.4375 -40.359375 C 29.664062 -39.460938 29.664062 -38.570312 29.4375 -37.6875 C 29.21875 -36.8125 28.757812 -36.09375 28.0625 -35.53125 C 27.363281 -34.976562 26.429688 -34.738281 25.265625 -34.8125 C 22.304688 -35.019531 19.285156 -35.125 16.203125 -35.125 C 16.003906 -33.957031 15.804688 -32.789062 15.609375 -31.625 C 15.410156 -30.46875 15.226562 -29.3125 15.0625 -28.15625 C 16.707031 -28.113281 18.289062 -28.015625 19.8125 -27.859375 C 21.007812 -27.734375 22.054688 -27.28125 22.953125 -26.5 C 23.859375 -25.71875 24.3125 -24.671875 24.3125 -23.359375 C 24.3125 -22.597656 24.097656 -21.851562 23.671875 -21.125 C 23.253906 -20.40625 22.707031 -19.828125 22.03125 -19.390625 C 21.351562 -18.953125 20.613281 -18.769531 19.8125 -18.84375 C 17.769531 -19.050781 15.726562 -19.15625 13.6875 -19.15625 C 13.53125 -18.03125 13.367188 -16.882812 13.203125 -15.71875 C 13.046875 -14.5625 12.890625 -13.425781 12.734375 -12.3125 C 14.765625 -12.507812 16.800781 -12.632812 18.84375 -12.6875 C 20.882812 -12.75 22.945312 -12.742188 25.03125 -12.671875 Z M 25.03125 -12.671875 "/></g></g></g><g fill="#f4ca44" fill-opacity="1"><g transform="translate(294.96629, 247.044697)"><g><path d="M 26.46875 -19.390625 C 27.632812 -19.472656 28.554688 -19.242188 29.234375 -18.703125 C 29.910156 -18.160156 30.367188 -17.445312 30.609375 -16.5625 C 30.847656 -15.6875 30.847656 -14.785156 30.609375 -13.859375 C 30.367188 -12.941406 29.898438 -12.148438 29.203125 -11.484375 C 28.503906 -10.828125 27.59375 -10.460938 26.46875 -10.390625 C 23.425781 -10.148438 20.4375 -9.757812 17.5 -9.21875 C 14.5625 -8.675781 11.628906 -7.984375 8.703125 -7.140625 C 7.859375 -6.898438 6.976562 -6.945312 6.0625 -7.28125 C 5.144531 -7.625 4.382812 -8.164062 3.78125 -8.90625 C 3.175781 -9.65625 2.914062 -10.53125 3 -11.53125 C 3.476562 -16.207031 3.945312 -20.882812 4.40625 -25.5625 C 4.875 -30.25 5.328125 -34.9375 5.765625 -39.625 C 5.878906 -40.738281 6.273438 -41.644531 6.953125 -42.34375 C 7.640625 -43.050781 8.441406 -43.515625 9.359375 -43.734375 C 10.285156 -43.953125 11.175781 -43.953125 12.03125 -43.734375 C 12.894531 -43.515625 13.597656 -43.050781 14.140625 -42.34375 C 14.679688 -41.644531 14.890625 -40.738281 14.765625 -39.625 C 14.410156 -35.894531 14.050781 -32.179688 13.6875 -28.484375 C 13.320312 -24.785156 12.960938 -21.09375 12.609375 -17.40625 C 17.128906 -18.363281 21.75 -19.023438 26.46875 -19.390625 Z M 26.46875 -19.390625 "/></g></g></g><g fill="#f4ca44" fill-opacity="1"><g transform="translate(328.756055, 247.044697)"><g><path d="M 5.703125 -36.984375 C 5.828125 -38.097656 6.226562 -38.992188 6.90625 -39.671875 C 7.582031 -40.359375 8.378906 -40.820312 9.296875 -41.0625 C 10.222656 -41.300781 11.125 -41.3125 12 -41.09375 C 12.882812 -40.875 13.585938 -40.410156 14.109375 -39.703125 C 14.628906 -39.003906 14.828125 -38.097656 14.703125 -36.984375 C 13.546875 -26.128906 12.644531 -15.257812 12 -4.375 C 11.925781 -3.21875 11.566406 -2.289062 10.921875 -1.59375 C 10.285156 -0.894531 9.515625 -0.429688 8.609375 -0.203125 C 7.710938 0.015625 6.820312 0.015625 5.9375 -0.203125 C 5.0625 -0.429688 4.332031 -0.894531 3.75 -1.59375 C 3.164062 -2.289062 2.914062 -3.21875 3 -4.375 C 3.644531 -15.257812 4.546875 -26.128906 5.703125 -36.984375 Z M 5.703125 -36.984375 "/></g></g></g><g fill="#f4ca44" fill-opacity="1"><g transform="translate(346.521185, 247.044697)"><g><path d="M 12.671875 -54.390625 C 13.628906 -42.898438 13.566406 -31.414062 12.484375 -19.9375 C 12.398438 -18.769531 12.019531 -17.835938 11.34375 -17.140625 C 10.664062 -16.441406 9.875 -15.976562 8.96875 -15.75 C 8.070312 -15.53125 7.179688 -15.53125 6.296875 -15.75 C 5.421875 -15.976562 4.710938 -16.441406 4.171875 -17.140625 C 3.628906 -17.835938 3.398438 -18.769531 3.484375 -19.9375 C 4.566406 -31.414062 4.625 -42.898438 3.65625 -54.390625 C 3.539062 -55.546875 3.757812 -56.472656 4.3125 -57.171875 C 4.875 -57.878906 5.585938 -58.34375 6.453125 -58.5625 C 7.316406 -58.78125 8.207031 -58.769531 9.125 -58.53125 C 10.039062 -58.289062 10.828125 -57.828125 11.484375 -57.140625 C 12.148438 -56.460938 12.546875 -55.546875 12.671875 -54.390625 Z M 7.859375 -9.359375 C 8.460938 -9.398438 9.035156 -9.289062 9.578125 -9.03125 C 10.117188 -8.769531 10.609375 -8.441406 11.046875 -8.046875 C 11.484375 -7.679688 11.8125 -7.195312 12.03125 -6.59375 C 12.25 -6 12.359375 -5.421875 12.359375 -4.859375 C 12.359375 -3.617188 11.921875 -2.5625 11.046875 -1.6875 C 11.003906 -1.644531 10.953125 -1.59375 10.890625 -1.53125 C 10.835938 -1.46875 10.769531 -1.398438 10.6875 -1.328125 C 9.84375 -0.484375 8.78125 -0.0390625 7.5 0 C 6.90625 0.0390625 6.335938 -0.0664062 5.796875 -0.328125 C 5.253906 -0.585938 4.765625 -0.921875 4.328125 -1.328125 C 3.921875 -1.722656 3.597656 -2.207031 3.359375 -2.78125 C 3.117188 -3.363281 3 -3.9375 3 -4.5 C 3 -5.738281 3.441406 -6.800781 4.328125 -7.6875 L 4.6875 -8.046875 C 5.519531 -8.890625 6.578125 -9.328125 7.859375 -9.359375 Z M 7.859375 -9.359375 "/></g></g></g></svg>